<svg xmlns="http://www.w3.org/2000/svg" viewBox="0 0 512 512" fill="currentColor"><path fill-rule="evenodd" d="M81.027 29.725c-6.065 2.156-14.149 10.37-16.518 16.783-1.481 4.01-1.927 8.766-2.267 24.168l-.424 19.176-19.659.324c-19.214.317-19.789.388-25.383 3.135-6.871 3.374-12.045 9.119-14.768 16.397C.026 115.007 0 117.293 0 288.859 0 481.656-.501 467.55 6.638 475.89c1.942 2.268 5.63 5.358 8.196 6.867L19.5 485.5l202 .305c141.053.213 203.51-.018 207.005-.767 7.227-1.548 14.251-7.211 17.977-14.492l3.018-5.897.337-20.771.336-20.771 21.746-.304 21.745-.303 4.918-3.029c5.249-3.233 11.091-10.842 12.236-15.936.375-1.669.917 11.14 1.203 28.465.287 17.325.572-47.475.632-144 .061-96.525-.233-174.15-.653-172.5-.42 1.65-.817 2.195-.882 1.21-.379-5.734-7.49-14.812-14.498-18.509L491.5 95.5l-93.697-.275-93.698-.274-13.414-27.226C276.394 38.709 274.256 35.639 265 30.835l-4.5-2.335-87.5-.182c-77.735-.162-87.999-.005-91.973 1.407M93 74.458v15.458l51.75.292 51.75.292 5.214 2.358c9.404 4.252 12.985 9.33 27.242 38.628L241.858 158h186.749l5.152 2.567c5.956 2.968 10.64 7.909 13.635 14.382 2.094 4.525 2.108 5.167 2.378 110.801l.272 106.25H481V126H289.736l-3.511-2.17c-3.074-1.9-5.433-6.065-18.974-33.5L251.788 59H93v15.458M.489 289c0 96.525.117 136.013.261 87.75.143-48.262.143-127.237 0-175.5C.606 152.988.489 192.475.489 289M31 288v167h388V189h-94.435c-64.291 0-95.333-.34-97.25-1.064-5.653-2.136-8.467-6.566-23.273-36.646L189.134 121H31v167"/></svg>