<svg viewBox="0 0 24 24" xmlns="http://www.w3.org/2000/svg"><path d="M13.158 2.24a.964.964 0 00-.376.074.96.96 0 00-.444.372.977.977 0 00-.109.195l-3.633 8.78H5.093a.962.962 0 00-.965.965.962.962 0 00.965.964h2.705v.002h2.087v-.002h2.089c.534 0 .964-.43.964-.964a.962.962 0 00-.964-.964h-1.29l2.46-5.949L19.52 21.12a.962.962 0 001.26.522.962.962 0 00.522-1.26l-7.26-17.545a.962.962 0 00-.884-.596zM3.589 15.3a.962.962 0 00-.964.964c0 .534.43.964.964.964h2.704l-1.324 3.2a.962.962 0 00.523 1.26.962.962 0 001.26-.522l1.628-3.938h2.09a.962.962 0 00.965-.964.962.962 0 00-.964-.964z" fill="#f44336" paint-order="fill markers stroke"/></svg>