<svg viewBox="0 0 40 40" xmlns="http://www.w3.org/2000/svg"><path d="M4.974 27.514h2.254v5.26h5.26v2.253H4.974z" fill="#64b5f6"/><path d="M4.974 13.74v6.888l4.382 4.512 1.879-2.008 5.634 5.635-1.877 1.878 4.383 4.381h6.888c.69 0 1.25-.56 1.25-1.252V23.757l-11.27-11.27H6.228c-.693 0-1.253.561-1.253 1.253z" fill="#1565c0"/><path d="M10.396 23.05a1.253 1.253 0 01-.156-1.58L20.509 6.087a2.503 2.503 0 012.082-1.114h11.182c.692 0 1.252.56 1.252 1.252v11.182c0 .837-.417 1.618-1.113 2.084L18.532 29.76a1.253 1.253 0 01-1.582-.156z" fill="#1e88e5"/><path d="M11.22 26.93l9.56-9.561 1.852 1.85-9.561 9.561z" fill="#0a44c2"/><path d="M11.22 26.929l9.56-9.56 1.85 1.85-9.56 9.561z" fill="#64b5f6"/><path d="M14.6 27.252l-1.852-1.85 8.033-8.033 1.85 1.85z" fill="#42a5f5"/><path d="M27.514 16.244a3.757 3.757 0 10-.001-7.514 3.757 3.757 0 000 7.514z" fill="#0a44c2"/><path d="M27.514 16.244a3.757 3.757 0 100-7.514 3.757 3.757 0 000 7.514z" fill="#90caf9"/></svg>