<svg xmlns="http://www.w3.org/2000/svg" class="header__svg-logo" preserveAspectRatio="xMinYMin meet" viewBox="0 0 681.571 842.229" xmlns:xlink="http://www.w3.org/1999/xlink"><defs><linearGradient id="a" x1="64.01" x2="32.99" y1="65.26" y2="89.48" gradientUnits="userSpaceOnUse"><stop offset=".18" stop-color="#1565c0"/><stop offset="1" stop-color="#1e88e5"/></linearGradient></defs><g class="header__svg-logo__icon"><path fill="#1e88e5" d="M104.682 116.864a21.676 21.676 0 0 0-21.676 25.145l92.016 558.6a29.48 29.48 0 0 0 28.83 24.602H645.29a21.676 21.676 0 0 0 21.676-18.208L759.2 142.225a21.676 21.676 0 0 0-21.676-25.144zm387.465 403.722H351.251l-38.15-199.206h213.187z"/><path fill="url(#a)" d="M59.67 60.12H40.9L37.75 78.5h-13L9.4 96.73a2.7 2.7 0 0 0 1.75.66h40.74a2 2 0 0 0 2-1.68z" transform="translate(83.006 -330.211)scale(10.83818)"/></g></svg>