<svg viewBox="0 0 24 24" xmlns="http://www.w3.org/2000/svg" clip-rule="evenodd" fill-rule="evenodd" stroke-linejoin="round" stroke-miterlimit="2"><path d="M13.507 1.71a10.375 10.375 0 00-3.013 0l-.659 1.72a8.835 8.835 0 00-2.364.98l-1.682-.75a10.376 10.376 0 00-2.13 2.129l.75 1.682a8.835 8.835 0 00-.98 2.364l-1.719.66a10.375 10.375 0 000 3.012l1.72.659a8.835 8.835 0 00.98 2.364l-.75 1.682a10.376 10.376 0 002.129 2.13l1.682-.75a8.835 8.835 0 002.364.98l.66 1.719c.998.146 2.013.146 3.012 0l.659-1.72a8.835 8.835 0 002.364-.98l1.682.75a10.376 10.376 0 002.13-2.129l-.75-1.682a8.835 8.835 0 00.98-2.364l1.719-.66c.146-.998.146-2.013 0-3.012l-1.72-.659a8.835 8.835 0 00-.98-2.364l.75-1.682a10.376 10.376 0 00-2.129-2.13l-1.682.75a8.835 8.835 0 00-2.364-.98zM12 5.336c3.677 0 6.664 2.987 6.664 6.665s-2.987 6.664-6.664 6.664-6.665-2.987-6.665-6.664 2.987-6.665 6.665-6.665z" fill="#0288d1"/><path d="M14.676 14.671a3.768 3.768 0 01-2.675 1.111c-2.088 0-3.782-1.694-3.782-3.781S9.913 8.219 12 8.219c1.044 0 1.99.424 2.675 1.11l-1.337 1.337a1.89 1.89 0 100 2.67z" fill="#0288d1"/></svg>