<svg viewBox="0 0 1424.1 1368" xmlns="http://www.w3.org/2000/svg"><style>.st0{fill:#ff5252}</style><path class="st0" d="M1101.815 130.51c-12.441.29-30.444 1.731-55.956 5.878-32.232 5.25-56.169 11.549-61.523 12.914-39.16 10.394-67.506 22.153-93.018 32.757-14.383 5.984-33.283 13.859-56.59 25.932l-.733.42c-11.13 5.774-19.738 10.394-24.358 12.914l-2.414 1.259c-16.693 9.028-32.861 15.958-49.764 24.776 0 0-16.167 8.505-39.999 24.043-6.929 4.515-12.914 9.028-12.914 9.028a140.698 140.698 0 00-4.621 3.57c-5.67 4.514-10.917 9.554-15.641 15.119-4.515 5.249-11.026 12.81-15.33 23.518-7.034 17.113-4.723 32.86-3.673 39.999 1.47 9.134 4.513 28.66 19.841 41.68 11.758 10.183 25.618 11.865 33.807 12.705 50.079 4.619 98.163-5.355 129.026-9.344 41.47-5.25 73.071-2.31 98.268 0 45.985 4.304 96.587 9.027 148.87 42.099 12.388 7.874 45.67 30.447 74.435 72.021 12.598 18.164 31.811 45.986 39.16 85.985 7.244 39.895-.84 72.755 7.769 74.96 4.094 1.05 8.715-5.354 17.849-17.847a208.476 208.476 0 0028.346-54.173c2.625-7.664 5.25-19.11 10.499-42.101 5.774-24.987 8.607-37.48 10.497-49.344 1.574-10.183 3.464-24.986 4.094-63.936.63-43.674.945-65.513-1.575-89.03-3.465-32.02-10.498-63.516-20.997-93.858-11.338-32.02-22.992-64.252-51.759-94.699-20.682-21.942-38.95-31.076-45.354-34.015-18.163-8.504-33.594-10.708-43.673-12.178-3.254-.472-10.132-1.338-22.573-1.05zm-100.668 82.399c12.105.117 20.275 2.825 22.244 9.045 5.25 16.589-23.937 48.503-74.436 64.461-50.498 15.854-117.378 7.034-122.622-9.554s41.47-31.39 91.969-47.243c31.561-9.908 62.671-16.905 82.847-16.71z" stroke-width="1.031"/><path class="st0" d="M925.465 442.638c1.785-5.354 27.402-1.47 37.27 0 27.927 4.2 55.433 8.4 88.189 25.932 23.517 12.493 59.107 36.85 85.774 80.105 5.25 8.399 30.026 49.868 33.176 110.026 2.94 54.907-13.859 95.747-22.677 116.535-37.06 87.348-106.037 132.702-139.423 154.015-22.887 14.593-81.574 48.713-161.049 57.952-40.734 4.725-94.698 3.885-96.797-6.719-.63-3.36 3.99-7.349 11.023-13.438 3.255-2.835 11.969-9.869 26.982-13.753 8.399-2.205 12.178-1.68 32.65-2.1 19.633-.42 29.397-.63 35.906-1.47 14.593-2.1 28.976-5.984 42.52-11.758 9.763-4.095 17.322-7.14 26.456-13.754a107.107 107.107 0 0026.982-28.87c4.094-6.195 7.874-11.97 11.023-20.473 2.625-6.93 3.045-10.814 6.93-16.588 3.674-5.46 6.718-7.14 11.128-11.339 3.464-3.254 6.09-6.404 17.848-26.141 8.503-14.278 12.703-21.418 15.328-26.457 12.178-23.622 16.692-45.46 19.212-57.847 8.924-43.99 4.62-80.945 2.415-99.528-3.99-32.86-7.874-65.511-28.347-101.942-13.543-24.146-31.076-55.327-64.776-76.85-6.614-4.514-19.003-11.548-17.743-15.538z"/><path class="st0" d="M843.89 890.406s6.615-13.964 21.523-55.958c5.67-15.853 8.924-24.987 10.394-38.74 1.89-17.428-.21-31.286-4.41-58.688-1.05-7.244-2.625-14.383-4.83-21.417-1.574-5.04-3.044-8.294-7.663-18.897-12.074-27.192-14.803-32.336-20.053-38.635-8.084-9.66-13.018-11.024-14.803-11.339-7.979-1.575-17.848 2.205-20.787 8.924-2.625 5.984 1.05 12.388 5.04 20.052 0 0 5.773 11.234 19.107 46.09 7.139 18.792 7.769 34.645 8.189 47.558 1.574 46.72-17.953 82.1-24.462 93.438-17.848 31.286-40 49.134-56.273 61.942-34.12 26.772-70.76 41.47-89.448 48.924-29.922 11.968-44.725 14.173-57.428 30.761-9.869 12.913-11.758 26.037-15.013 48.189 0 0-5.46 38.005 9.344 82.1 2.73 8.293 5.879 15.432 12.913 20.262 10.079 6.824 22.572 4.619 32.756 2.834 13.858-2.414 26.981-8.084 39.265-13.333 9.764-4.2 16.588-7.769 24.672-5.354 3.464 1.05 6.719 3.044 11.338 7.769 10.604 11.023 16.273 24.357 19.843 37.585 5.984 21.837 9.238 34.12 2.414 40.84-7.349 7.244-23.937 5.669-34.015-.42-6.93-4.2-7.244-8.504-15.013-11.339-5.985-2.205-10.499-1.365-20.998-.42-8.714.735-17.532.84-26.246 1.26-22.887 1.155-34.33 1.68-44.095 1.26-13.438-.63-19.842-1.995-23.832 2.414-4.514 4.935-1.574 12.074-7.244 16.588-3.36 2.625-7.454 2.73-12.178 2.835-5.46.105-11.759-1.155-15.328-3.255-8.714-5.039-6.824-17.952-9.344-47.349-1.575-19.002-2.625-15.223-6.929-51.338-.84-7.979-2.1-15.853-3.884-23.622-1.68-7.454-2.835-10.079-4.62-18.058-1.575-7.034-2.835-14.278-3.674-21.417-1.26-10.288-4.305-29.081-11.339-65.931 0 0-13.753-59.003-4.41-78.53 3.045-6.3 7.665-8.084 7.665-8.084 1.26-.525 2.31-.525 6.929-.42 7.454.315 11.128.42 16.588 1.26 7.244 1.05 6.824 1.785 9.658 1.575 4.725-.315 9.134-2.205 12.494-5.355 5.459-5.354 4.934-13.438 5.144-20.262.105-3.15.21-.735 11.024-41.575 8.819-32.966 7.979-31.706 10.498-39.37 4.935-14.698 9.974-25.511 15.328-36.64 19.318-39.79 28.872-59.632 39.685-77.27 21.627-35.38 42.1-57.953 67.612-86.194 25.721-28.451 48.083-52.913 83.779-78.11 38.005-26.771 60.682-32.966 78.53-34.75 11.233-1.155 27.611-2.835 45.669 4.41 29.71 11.968 42.834 39.894 55.013 65.51 19.527 41.155 21.417 77.796 22.257 97.953 1.575 37.375-4.62 64.987-8.084 80.105-10.919 47.454-30.131 81.05-41.47 85.354-1.26.525-7.139 2.414-9.344 7.454-1.574 3.674-.525 7.244-.21 8.714 2.94 13.018-10.918 30.446-13.753 34.015-12.808 16.063-29.606 20.578-38.845 23.097-2.205.63-33.49 8.714-39.265-1.575-2.205-3.989.525-8.713 4.62-17.427z"/><path class="st0" d="M596.228 710.774c.105 4.094-.105 8.084-.42 12.178-1.785 21.208-8.82 33.806-17.953 54.803-9.974 22.992-15.853 36.43-20.787 55.853-3.15 12.388-7.244 24.462-9.554 37.06-2.73 14.908-2.625 21.627-8.19 25.092-6.088 3.78-10.813-1.68-29.395-2.1-9.66-.21-16.903 1.05-24.252 5.88-6.824 4.514-10.709 9.868-11.864 12.703a33.968 33.968 0 00-2.73 14.068c1.365 53.753.84 61.417-1.364 64.777-3.57 5.459-15.328 8.294-33.176 14.803-6.929 2.52-24.987 8.924-59.107 15.118-20.263 3.674-35.59 6.509-57.218 7.139-14.908.63-29.711 0-44.514-1.995-17.113-2.31-41.155-5.564-66.352-19.107-10.603-5.67-47.454-25.512-64.776-69.081-11.969-30.132-8.714-56.798-7.034-69.816a147.966 147.966 0 0122.677-61.732c8.084-12.284 23.307-34.541 52.808-47.244 15.748-6.72 32.86-9.66 49.973-8.504 36.536 2.73 77.69 25.511 86.614 58.582 1.05 3.78 5.985 24.042-4.62 38.845-1.574 2.205-6.193 8.714-11.338 8.084-5.354-.63-7.139-8.294-14.593-22.152-6.194-11.549-9.344-17.323-14.803-22.677-14.488-14.068-34.54-14.068-36.64-14.068-21.207.315-34.75 13.858-40.42 19.422-4.304 4.305-21.522 21.837-20.997 49.134.105 3.464.735 25.827 17.847 43.674 18.268 19.213 43.15 20.473 57.218 20.998 32.231 1.26 58.163-10.92 85.774-26.982 3.255-1.89 5.88-3.465 8.084-4.83 48.399-30.235 88.189-64.566 112.336-87.558 16.587-15.853 21.522-21.942 41.89-40.42 15.852-14.383 18.267-15.643 27.296-25.092 7.979-8.399 13.543-15.223 24.252-23.832 4.829-3.99 9.973-7.664 15.328-11.023zM883.05 1024.158c1.995-1.47 6.195-1.47 15.014-1.574 6.194-.105-1.155 0 12.808-.105 9.659-.105 11.129.105 16.693 0 2.624-.105 3.36-.105 8.399-.315 3.36-.105 8.084-.21 11.338-.21 1.575 0 2.835 1.26 2.835 2.73v.104c-.105 6.09.21 12.284-.105 19.213-.105 3.045-.105 6.09 0 9.029a85.778 85.778 0 010 7.349c-.315 6.614-.42 23.202 4.094 47.874 1.155 6.299 2.205 11.443 6.51 15.958 6.299 6.614 15.538 7.139 21.522 7.559 12.493.84 22.572-3.045 34.12-7.56 15.433-6.089 18.478-10.078 26.247-8.923 2.835.42 9.239 1.784 17.218 10.813 5.879 6.614 8.609 12.914 13.858 25.302 2.835 6.404 5.144 12.913 7.034 19.738 3.36 12.388 4.934 18.582 2.94 22.677-5.67 11.338-37.06 4.724-43.255.84-2.834-1.785-6.089-4.2-6.089-4.2-1.89-1.365-3.464-2.625-4.514-3.465-3.885-3.044-6.72-5.144-7.664-5.984-.525-.42-1.155-.84-1.68-1.26-.315-.21-.63-.42-1.05-.63-1.365-.734-2.73-1.364-4.2-1.784-1.89-.735-3.884-1.365-5.984-1.68-1.574-.315-1.89-.105-9.448-.21h-4.725c-1.05 0-2.31.105-6.614.63-4.2.525-6.51.735-8.504 1.05l-6.614 1.155s-9.869 2.1-18.163 3.254c-3.57.525-4.094.42-7.139.945-4.41.84-6.614 1.155-7.559 1.89-4.41 3.36 1.68 12.178-1.575 18.582-4.724 8.924-26.876 11.129-35.695 1.575-3.465-3.674-3.885-8.189-4.41-12.703-2.414-20.577-5.984-40.945-7.873-61.522-.84-9.449-1.68-18.268-3.675-30.236-1.05-6.51-3.045-25.197-7.139-62.467-.525-3.675-1.05-10.394 3.045-13.439z"/></svg>