<svg clip-rule="evenodd" stroke-linejoin="round" stroke-miterlimit="1.414" viewBox="0 0 24 24" xmlns="http://www.w3.org/2000/svg"><path d="M19 20H4a2 2 0 01-2-2V6c0-1.11.89-2 2-2h6l2 2h7c1.097 0 2 .903 2 2H4v10l2.14-8h17.07l-2.28 8.5c-.23.87-1.01 1.5-1.93 1.5z" fill="#009688"/><path d="M21.275 18.517c-.678 0-1.222.544-1.222 1.222a1.222 1.222 0 001.222 1.222 1.222 1.222 0 001.222-1.222c0-.678-.55-1.222-1.222-1.222M11.5 8.742v1.222h1.222l2.2 4.637-.832 1.497a1.245 1.245 0 00-.146.586 1.222 1.222 0 001.222 1.222h7.33v-1.222h-7.074a.153.153 0 01-.153-.153.13.13 0 01.019-.073l.55-.996h4.551a1.23 1.23 0 001.07-.629l2.186-3.953a.773.773 0 00.074-.305.61.61 0 00-.611-.611h-9.036l-.574-1.222m1.668 9.775c-.679 0-1.222.544-1.222 1.222a1.222 1.222 0 001.222 1.222 1.222 1.222 0 001.222-1.222c0-.678-.55-1.222-1.222-1.222z" fill="#b2dfdb" stroke-width=".611"/></svg>