<svg xmlns="http://www.w3.org/2000/svg" fill-rule="evenodd" stroke-linejoin="round" stroke-miterlimit="1.414" clip-rule="evenodd" viewBox="0 0 24 24"><path fill="#616161" fill-rule="nonzero" d="M10 4H4c-1.11 0-2 .89-2 2v12c0 1.097.903 2 2 2h16c1.097 0 2-.903 2-2V8a2 2 0 0 0-2-2h-8z"/><path fill="#848992" fill-rule="nonzero" d="M23.814 15.439c0 3.388-2.788 6.177-6.176 6.177s-6.177-2.789-6.177-6.177 2.788-6.177 6.177-6.177 6.177 2.788 6.177 6.177"/><path fill="#fff" fill-rule="nonzero" d="m17.742 13.124 1.598 3.945-2.414-1.902zm2.84 4.854-2.46-5.917a.4.4 0 0 0-.38-.261.41.41 0 0 0-.392.26l-2.698 6.49h.923l1.068-2.675 3.188 2.575c.128.104.22.15.341.15l.01.001a.443.443 0 0 0 .441-.441.6.6 0 0 0-.042-.182"/></svg>