<svg clip-rule="evenodd" stroke-linejoin="round" stroke-miterlimit="1.414" viewBox="0 0 24 24" xmlns="http://www.w3.org/2000/svg"><path d="M19 20H4a2 2 0 01-2-2V6c0-1.11.89-2 2-2h6l2 2h7c1.097 0 2 .903 2 2H4v10l2.14-8h17.07l-2.28 8.5c-.23.87-1.01 1.5-1.93 1.5z" fill="#0288d1"/><path d="M19.937 11.582c-.125 0-.24.003-.326.011-.673.058-1.301.352-1.731.81-.216.23-.411.558-.506.851-.106.324-.105.319-.105.826 0 .648.034.808.255 1.24.222.434.56.788 1.048 1.097.213.137.76.41 1.207.603.973.421 1.281.616 1.424.9l.059.116v.246c0 .236 0 .249-.05.346-.109.225-.368.41-.7.5-.125.033-.183.038-.463.038-.274 0-.34-.006-.467-.038a1.792 1.792 0 01-.549-.227c-.177-.117-.526-.468-.667-.674-.063-.09-.125-.163-.14-.163-.023 0-1.223.685-1.433.82-.07.044-.088.065-.088.1 0 .075.28.5.5.757.448.524 1.346.987 2.141 1.103.314.045.836.06 1.2.034.24-.02.482-.064.74-.14.94-.275 1.581-.86 1.818-1.66a2.976 2.976 0 00.104-1.065c-.065-.694-.279-1.186-.7-1.61-.391-.395-.927-.713-1.988-1.178-.919-.402-1.158-.56-1.291-.842-.114-.244-.092-.58.051-.79.169-.244.512-.365.896-.314.356.047.586.188.812.498.117.16.199.243.237.243.04 0 .205-.102.719-.444.524-.347.688-.465.7-.5.018-.056-.066-.185-.305-.479-.482-.591-1.048-.905-1.776-.984a6.466 6.466 0 00-.626-.03zm-5.788.1h-1.473c-2.843.004-3.504.009-3.522.026-.017.018-.021.192-.021.843v.82l1.293.005 1.292.005v3.659c0 2.014.006 3.678.011 3.698l.01.038h.94c.842 0 .94-.001.95-.027.006-.014.01-1.678.01-3.697V13.38l1.293-.005 1.292-.005v-.83c0-.72-.003-.833-.025-.846-.011-.007-.754-.012-2.05-.013z" stroke-width=".018" fill-rule="evenodd" fill="#90caf9"/></svg>