<svg viewBox="0 0 24 24" xmlns="http://www.w3.org/2000/svg" clip-rule="evenodd" fill-rule="evenodd" stroke-linejoin="round" stroke-miterlimit="1.414"><path d="M10 4H4c-1.11 0-2 .89-2 2v12c0 1.097.903 2 2 2h16c1.097 0 2-.903 2-2V8a2 2 0 00-2-2h-8l-2-2z" fill-rule="nonzero" fill="#616161"/><path d="M23.814 15.439c0 3.388-2.788 6.177-6.176 6.177s-6.177-2.789-6.177-6.177 2.788-6.177 6.177-6.177c3.388 0 6.177 2.788 6.177 6.177" fill-rule="nonzero" fill="#848992"/><path d="M17.742 13.124l1.598 3.945-2.414-1.902.816-2.043zm2.84 4.854l-2.46-5.917a.397.397 0 00-.38-.261.41.41 0 00-.392.26l-2.698 6.49h.923l1.068-2.675 3.188 2.575c.128.104.22.15.341.15l.01.001c.242 0 .441-.199.441-.441a.584.584 0 00-.042-.182" fill-rule="nonzero" fill="#fff"/></svg>