<svg clip-rule="evenodd" stroke-linejoin="round" stroke-miterlimit="1.414" viewBox="0 0 24 24" xmlns="http://www.w3.org/2000/svg"><path d="M19 20H4a2 2 0 01-2-2V6c0-1.11.89-2 2-2h6l2 2h7c1.097 0 2 .903 2 2H4v10l2.14-8h17.07l-2.28 8.5c-.23.87-1.01 1.5-1.93 1.5z" fill="#f06292"/><path d="M22.877 10.057c-.376-1.473-2.818-1.957-5.13-1.136-1.376.49-2.864 1.256-3.935 2.258-1.274 1.19-1.477 2.227-1.393 2.66.295 1.528 2.39 2.527 3.25 3.268v.005c-.254.124-2.111 1.065-2.546 2.026-.459 1.014.073 1.741.425 1.84 1.09.303 2.21-.243 2.812-1.14.58-.866.532-1.984.28-2.54a3.345 3.345 0 011.269-.073c1.455.17 1.74 1.078 1.686 1.459s-.36.59-.462.652-.133.085-.125.132c.013.068.06.066.147.05.12-.02.763-.308.791-1.01.035-.89-.818-1.888-2.33-1.861-.623.01-1.014.07-1.297.175-.021-.024-.042-.048-.065-.071-.934-.997-2.662-1.703-2.589-3.043.027-.488.196-1.771 3.32-3.328 2.56-1.275 4.608-.924 4.962-.146.506 1.11-1.095 3.176-3.752 3.474-1.013.113-1.546-.28-1.679-.425-.14-.154-.16-.161-.212-.132-.085.047-.031.182 0 .264.08.206.405.572.96.754.488.16 1.677.249 3.115-.307 1.61-.624 2.867-2.357 2.498-3.805zm-6.85 7.507c.12.446.107.863-.018 1.24a1.995 1.995 0 01-.1.245 2.32 2.32 0 01-.382.558c-.482.526-1.155.725-1.444.557-.312-.18-.156-.922.403-1.512.6-.636 1.466-1.044 1.466-1.044l-.002-.003.076-.041z" fill="#fce4ec" stroke-miterlimit="4" stroke-width=".5015165100000001" stroke="#fce4ec"/></svg>