<svg clip-rule="evenodd" fill-rule="evenodd" stroke-linejoin="round" stroke-miterlimit="1.414" viewBox="0 0 24 24" xmlns="http://www.w3.org/2000/svg"><path d="M10 4H4c-1.11 0-2 .89-2 2v12c0 1.097.903 2 2 2h16c1.097 0 2-.903 2-2V8a2 2 0 00-2-2h-8l-2-2z" fill="#039be5" fill-rule="nonzero"/><g color="#000" fill="#b3e5fc" stroke-miterlimit="3.7" stroke-width="190.6" paint-order="markers fill stroke"><path d="M17.042 9.092c-.067.01-.2.055-.295.094-.286.123-5.474 2.872-5.573 2.95-.224.188-.297.581-.165.867a.6.6 0 00.148.199c.098.071 5.52 2.513 5.74 2.582.18.059.42.05.637-.027.238-.084 5.577-2.489 5.66-2.55.124-.091.193-.259.202-.49.013-.26-.051-.44-.199-.568-.103-.086-5.388-2.892-5.649-2.998a.925.925 0 00-.506-.059zm2.741 2.018c1.493.802 2.715 1.539 2.715 1.549.003.01-1.116.538-2.606 1.167l-2.712 1.141-2.7-1.136c-1.486-.627-2.591-1.174-2.594-1.187-.002-.015 1.098-.655 2.584-1.454 1.482-.802 2.7-1.458 2.7-1.458s1.123.576 2.613 1.378z" style="-inkscape-stroke:none"/><path d="M17.162 16.058c-.116 0-.23-.016-.337-.051-.041-.013-.066-.024-.118-.046a98.109 98.109 0 01-.88-.385 405.388 405.388 0 01-4.694-2.123 3.034 3.034 0 01-.058-.029c-.016-.008-.013-.002-.056-.032a.234.234 0 01-.001-.001.674.674 0 01-.22-.289.234.234 0 01-.001 0c-.182-.39-.102-.87.227-1.145a.234.234 0 01.004-.003c.036-.029.036-.025.05-.034l.057-.032a99.63 99.63 0 01.8-.435 430.397 430.397 0 014.387-2.317c.17-.087.27-.138.332-.165a.234.234 0 01.004-.002c.108-.044.226-.09.348-.108a1.16 1.16 0 01.63.073c.073.03.162.077.333.165a387.342 387.342 0 015.08 2.696 15.299 15.299 0 01.244.138c.016.009.017.005.054.036a.234.234 0 01.004.003c.204.177.294.452.28.756-.012.272-.097.52-.297.667-.05.037-.041.026-.056.033l-.056.028a463.626 463.626 0 01-5.286 2.385c-.17.074-.258.114-.325.137-.147.052-.3.08-.45.08zm-.034-.473a.933.933 0 00.328-.05c-.007.003.124-.05.292-.124a479.442 479.442 0 005.09-2.293 17.22 17.22 0 00.225-.106c.044-.038.092-.126.1-.305.01-.21-.026-.296-.11-.372h-.001a377.686 377.686 0 00-5.297-2.819c-.169-.087-.301-.15-.295-.147a.69.69 0 00-.377-.046.234.234 0 01-.007.001c-.01.002-.155.044-.238.078-.01.005-.134.065-.301.151l-.659.343a436.012 436.012 0 00-4.513 2.4l-.048.028c-.114.105-.177.403-.095.58.016.035.067.094.076.107l.04.02.184.087a410.228 410.228 0 005.163 2.323l.203.087.079.032a.234.234 0 01.003.001.578.578 0 00.158.024zm.083-.385a.234.234 0 01-.122-.016l-2.7-1.137a53.165 53.165 0 01-2.41-1.09 8.451 8.451 0 01-.195-.1l-.02-.013-.022-.015c-.006-.004-.013-.01-.025-.023s-.042-.022-.06-.116a.234.234 0 01-.002-.007c-.016-.096.017-.137.03-.16s.023-.032.03-.04c.014-.015.02-.02.026-.024.012-.01.018-.013.025-.018.013-.01.027-.018.045-.03a38.052 38.052 0 01.693-.404 93.7 93.7 0 011.854-1.023c1.483-.802 2.7-1.458 2.7-1.458a.234.234 0 01.219-.003s1.125.578 2.617 1.38a68.217 68.217 0 012.51 1.421 12.672 12.672 0 01.228.142l.018.013c.004.004.01.009.022.023.006.006.014.015.026.034.01.016.027.038.033.09.023.123-.036.164-.053.184-.018.02-.027.027-.034.032-.014.012-.02.015-.024.018l-.022.013a75.614 75.614 0 01-2.614 1.17.234.234 0 01-.001 0l-2.713 1.14a.234.234 0 01-.06.017zm-.031-.487L19.8 13.61a75.158 75.158 0 002.209-.975 67.763 67.763 0 00-2.338-1.318 170.347 170.347 0 00-2.5-1.32l-2.591 1.4a93.285 93.285 0 00-2.211 1.228 52.703 52.703 0 002.2.99zm5.091-1.998a.234.234 0 01-.007-.056.3.3 0 00.007.056z" style="-inkscape-stroke:none"/><path d="M10.894 14.948c.034.351.12.607.243.735.067.066.627.33 2.885 1.343a167.33 167.33 0 002.9 1.284c.167.044.393.031.585-.032s5.51-2.447 5.641-2.529c.118-.07.241-.341.288-.632.066-.388.096-.373-.322-.164-.202.098-1.619.757-3.148 1.463L17.18 17.7l-2.784-1.284a295.322 295.322 0 01-3.153-1.466l-.366-.182z" style="-inkscape-stroke:none"/><path d="M17.127 18.572a1.112 1.112 0 01-.266-.036.234.234 0 01-.001 0c-.04-.011-.036-.012-.05-.018a14.808 14.808 0 01-5.617-2.53c-.104-.054-.143-.06-.221-.14a.234.234 0 01-.004-.002c-.193-.201-.27-.497-.307-.875l-.018-.18a.234.234 0 01.338-.233l.366.182c.175.087 1.615.757 3.147 1.463l2.686 1.239 2.688-1.239c1.528-.705 2.958-1.37 3.142-1.46.102-.052.177-.091.244-.121a.575.575 0 01.108-.04.268.268 0 01.201.02.293.293 0 01.142.2c.009.054.004.088 0 .122-.007.07-.022.139-.038.233v-.002a1.814 1.814 0 01-.135.458c-.061.134-.122.252-.262.336-.049.03-.057.03-.104.053l-.192.09-.639.291a491.764 491.764 0 01-4.643 2.072c-.051.022-.073.032-.111.045-.147.049-.303.074-.454.072zm.005-.472a.978.978 0 00.3-.045c-.014.005.029-.01.077-.031l.196-.085c.164-.071.387-.17.65-.286a503.177 503.177 0 004.61-2.074c.022-.01.044-.022.058-.03.002-.007.048-.056.082-.13.03-.067.06-.151.08-.24-.264.127-1.623.759-3.121 1.45l-2.786 1.284a.234.234 0 01-.197 0l-2.783-1.284a297.449 297.449 0 01-3.13-1.455c.036.162.086.275.123.328.013.007.056.038.114.068.093.047.238.117.452.217a448.761 448.761 0 004.899 2.198 20.39 20.39 0 00.228.098l.006.002c.038.009.087.014.142.015zm5.892-2.55a.234.234 0 01.003-.001l-.003.002z" style="-inkscape-stroke:none"/><path d="M10.896 17.466c.035.366.15.676.29.782.087.062 5.519 2.508 5.698 2.565.155.05.404.047.578-.005.165-.047 5.593-2.476 5.698-2.55.145-.101.263-.416.303-.802l.017-.18-.425.212c-.448.226-5.839 2.718-5.875 2.718s-5.78-2.654-6.048-2.794l-.253-.135z" style="-inkscape-stroke:none"/><path d="M17.17 21.087a1.139 1.139 0 01-.356-.05c-.046-.015-.063-.024-.114-.046a115.229 115.229 0 01-.865-.38 485.284 485.284 0 01-4.673-2.113 3.353 3.353 0 01-.057-.028c-.015-.008-.008.002-.055-.031a.234.234 0 01-.005-.004c-.133-.1-.203-.238-.263-.399-.06-.16-.1-.347-.119-.548l-.017-.19a.234.234 0 01.344-.228l.251.134c.032.017.467.223 1.043.491a820.705 820.705 0 004.896 2.256l.148-.067.625-.284c.517-.237 1.208-.556 1.912-.881 1.408-.65 2.89-1.342 3.084-1.44a.234.234 0 01.001 0l.426-.212a.234.234 0 01.337.232l-.017.18c-.021.211-.064.404-.125.568-.062.164-.135.305-.277.403-.037.026-.037.023-.053.03a425.396 425.396 0 01-5.598 2.508c-.05.022-.06.03-.116.045a1.326 1.326 0 01-.358.054zm-.007-.477a.928.928 0 00.233-.027.234.234 0 01.002 0c-.036.01.017-.007.064-.027l.195-.083c.164-.07.39-.17.656-.287a426.652 426.652 0 004.666-2.1l.05-.023a.593.593 0 00.103-.182c.021-.056.041-.124.058-.198l-.03.014c-.252.128-1.69.796-3.098 1.447a639.44 639.44 0 01-2.541 1.168 21.316 21.316 0 01-.252.11l-.016.006c-.008.002.01.012-.073.012-.088 0-.068-.01-.075-.012l-.015-.006a.677.677 0 01-.076-.032l-.19-.085-.665-.303a751.725 751.725 0 01-4.073-1.882c-.422-.197-.737-.343-.917-.43.015.068.033.13.053.183a.615.615 0 00.1.182l.042.02.183.086.638.292a489.995 489.995 0 004.698 2.107c.049.02.095.037.072.03.042.013.123.02.208.02zm.087-.628c0-.002.003-.006-.02-.009l.02.009zm-.14-.001l.018-.008c-.017.003-.016.006-.017.008z" style="-inkscape-stroke:none"/></g></svg>