<svg clip-rule="evenodd" stroke-linejoin="round" stroke-miterlimit="1.414" viewBox="0 0 24 24" xmlns="http://www.w3.org/2000/svg"><path d="M19 20H4a2 2 0 01-2-2V6c0-1.11.89-2 2-2h6l2 2h7c1.097 0 2 .903 2 2H4v10l2.14-8h17.07l-2.28 8.5c-.23.87-1.01 1.5-1.93 1.5z" fill="#ff5252"/><path d="M18.034 9.132l5.692 2.028-.863 7.534-4.829 2.672-4.83-2.672-.862-7.534 5.692-2.028m0 1.352l-3.56 7.984H15.8l.714-1.79h3.027l.714 1.79h1.32l-3.541-7.984m1.043 5.087h-2.08l1.037-2.492z" fill="#ffcdd2" stroke-width=".644"/></svg>