<svg clip-rule="evenodd" fill-rule="evenodd" stroke-linejoin="round" stroke-miterlimit="1.414" viewBox="0 0 24 24" xmlns="http://www.w3.org/2000/svg"><path d="M10 4H4c-1.11 0-2 .89-2 2v12c0 1.097.903 2 2 2h16c1.097 0 2-.903 2-2V8a2 2 0 00-2-2h-8l-2-2z" fill="#0288d1" fill-rule="nonzero"/><path d="M19.936 11.582c-.125 0-.24.003-.326.011-.673.058-1.301.352-1.732.81-.215.23-.41.558-.505.851-.106.324-.105.319-.105.826 0 .648.034.808.255 1.24.222.434.56.788 1.048 1.097.213.137.76.41 1.207.603.973.421 1.281.616 1.424.9l.058.116v.246c0 .236 0 .249-.048.346-.11.225-.369.41-.701.5-.126.033-.183.038-.463.038-.275 0-.341-.006-.467-.038a1.792 1.792 0 01-.549-.227c-.177-.117-.526-.468-.667-.674-.063-.09-.125-.163-.14-.163-.023 0-1.223.685-1.433.82-.07.044-.088.065-.088.1 0 .075.28.5.5.757.448.524 1.345.987 2.14 1.103.315.045.837.06 1.202.034.24-.02.48-.064.74-.14.94-.275 1.58-.86 1.817-1.66a2.976 2.976 0 00.104-1.065c-.066-.694-.279-1.186-.7-1.61-.391-.395-.927-.713-1.988-1.178-.919-.402-1.158-.56-1.291-.842-.114-.244-.092-.58.051-.79.169-.244.512-.365.896-.314.356.047.586.188.812.498.117.16.199.243.237.243.04 0 .205-.102.719-.444.524-.347.688-.465.7-.5.017-.056-.066-.185-.305-.479-.482-.591-1.049-.905-1.777-.984a6.466 6.466 0 00-.625-.03zm-5.789.1h-1.473c-2.843.004-3.503.009-3.521.026-.017.018-.022.192-.022.843v.82l1.294.005 1.292.005v3.659c0 2.014.006 3.678.011 3.698l.01.038h.94c.841 0 .94-.001.95-.027.006-.014.01-1.678.01-3.697V13.38l1.293-.005 1.292-.005v-.83c0-.72-.003-.833-.025-.846-.011-.007-.755-.012-2.05-.013z" stroke-width=".018" fill="#90caf9"/></svg>