<svg clip-rule="evenodd" fill-rule="evenodd" stroke-linejoin="round" stroke-miterlimit="1.414" viewBox="0 0 24 24" xmlns="http://www.w3.org/2000/svg"><path d="M10 4H4c-1.11 0-2 .89-2 2v12c0 1.097.903 2 2 2h16c1.097 0 2-.903 2-2V8a2 2 0 00-2-2h-8l-2-2z" fill="#ec407a" fill-rule="nonzero"/><path d="M21.944 12.474a4.869 4.869 0 010 6.885 4.879 4.879 0 01-4.917 1.2 4.95 4.95 0 01-2.951 0 4.879 4.879 0 01-4.917-1.2 4.869 4.869 0 010-6.885 4.879 4.879 0 014.917-1.2 4.95 4.95 0 012.95 0 4.879 4.879 0 014.918 1.2m-9.835 6.885a4.869 4.869 0 010-6.885 3.461 3.461 0 00-1.968.983 3.477 3.477 0 000 4.917 3.446 3.446 0 001.968.985m2.95 0a4.869 4.869 0 010-6.885 3.453 3.453 0 00-1.967.983 3.477 3.477 0 000 4.917 3.447 3.447 0 001.967.985m5.902-5.902a3.452 3.452 0 00-1.967-.983 4.869 4.869 0 010 6.885 3.453 3.453 0 001.967-.983 3.477 3.477 0 000-4.917m-4.917 0a3.477 3.477 0 000 4.917c.293.294.623.525.982.688a3.33 3.33 0 00.983-.688 3.477 3.477 0 000-4.917 3.33 3.33 0 00-.983-.69 3.33 3.33 0 00-.984.688z" stroke-width=".491" fill="#f8bbd0"/></svg>