<svg clip-rule="evenodd" stroke-linejoin="round" stroke-miterlimit="1.414" viewBox="0 0 24 24" xmlns="http://www.w3.org/2000/svg" xmlns:xlink="http://www.w3.org/1999/xlink"><defs><clipPath id="a"><use width="100%" height="100%" xlink:href="#SVGID_2_"/></clipPath></defs><path d="M19 20H4a2 2 0 01-2-2V6c0-1.11.89-2 2-2h6l2 2h7c1.097 0 2 .903 2 2H4v10l2.14-8h17.07l-2.28 8.5c-.23.87-1.01 1.5-1.93 1.5z" fill="#039be5"/><g fill="#b3e5fc"><path class="st0" d="M11.755 19.103c-.435 0-.83-.355-.83-.79s.356-.79.83-.79.829.356.829.79-.395.79-.83.79zM21.943 14.8c-.079-.632-.474-1.145-.987-1.54l-.198-.158-.158.197c-.316.356-.434.988-.395 1.462.04.355.158.71.356.987-.158.079-.356.158-.513.237-.356.118-.711.158-1.067.158H8.753l-.04.237c-.078.75.04 1.54.356 2.25l.158.277v.04c.948 1.579 2.646 2.29 4.502 2.29 3.554 0 6.476-1.54 7.859-4.857.908.04 1.816-.198 2.25-1.067l.119-.197-.197-.118c-.514-.316-1.225-.356-1.817-.198zm-5.094-.632h-1.54v1.54h1.54zm0-1.935h-1.54v1.54h1.54zm0-1.974h-1.54v1.54h1.54zm1.895 3.91h-1.54v1.54h1.54zm-5.726 0h-1.54v1.54h1.54zm1.935 0h-1.54v1.54h1.54zm-3.83 0h-1.54v1.54h1.54zm3.83-1.936h-1.54v1.54h1.54zm-1.935 0h-1.54v1.54h1.54z"/><g class="st1" clip-path="url(#a)" transform="matrix(.3949 0 0 .39489 8.319 9.626)"><path class="st0" d="M-48.8-21H1226v151.4H-48.8z"/></g></g></svg>