<svg clip-rule="evenodd" stroke-linejoin="round" stroke-miterlimit="1.414" viewBox="0 0 24 24" xmlns="http://www.w3.org/2000/svg"><path d="M19 20H4a2 2 0 01-2-2V6c0-1.11.89-2 2-2h6l2 2h7c1.097 0 2 .903 2 2H4v10l2.14-8h17.07l-2.28 8.5c-.23.87-1.01 1.5-1.93 1.5z" fill="#0288d1"/><g fill-rule="evenodd" fill="#b3e5fc" stroke-miterlimit="2"><path d="M18.28 9.126a6.354 6.354 0 00-1.845 0l-.403 1.054a5.411 5.411 0 00-1.449.6l-1.03-.46a6.355 6.355 0 00-1.304 1.304l.46 1.03a5.411 5.411 0 00-.6 1.449l-1.054.403a6.354 6.354 0 000 1.845l1.054.404a5.411 5.411 0 00.6 1.448l-.46 1.03a6.355 6.355 0 001.304 1.304l1.03-.459a5.411 5.411 0 001.449.6l.403 1.053c.612.09 1.234.09 1.845 0l.404-1.053a5.411 5.411 0 001.448-.6l1.03.46a6.355 6.355 0 001.304-1.305l-.459-1.03a5.411 5.411 0 00.6-1.448l1.053-.404c.09-.611.09-1.233 0-1.845l-1.053-.403a5.411 5.411 0 00-.6-1.449l.46-1.03a6.355 6.355 0 00-1.305-1.304l-1.03.46a5.411 5.411 0 00-1.448-.6zm-.922 2.22c2.252 0 4.082 1.83 4.082 4.083s-1.83 4.082-4.082 4.082-4.082-1.83-4.082-4.082 1.83-4.082 4.082-4.082z"/><path d="M18.996 17.065a2.308 2.308 0 01-1.638.68 2.317 2.317 0 010-4.633c.64 0 1.22.26 1.638.68l-.818.82a1.158 1.158 0 100 1.634z"/></g></svg>