<svg clip-rule="evenodd" fill-rule="evenodd" stroke-linejoin="round" stroke-miterlimit="1.414" viewBox="0 0 24 24" xmlns="http://www.w3.org/2000/svg"><path d="M10 4H4c-1.11 0-2 .89-2 2v12c0 1.097.903 2 2 2h16c1.097 0 2-.903 2-2V8a2 2 0 00-2-2h-8l-2-2z" fill="#448aff" fill-rule="nonzero"/><path d="M18.116 15.74a.644.644 0 000 .94.667.667 0 00.94 0 3.312 3.312 0 000-4.68l-2.343-2.344a3.312 3.312 0 00-4.68 0 3.312 3.312 0 000 4.68l.985.987a4.574 4.574 0 01.265-1.602l-.31-.318a1.974 1.974 0 010-2.807 1.974 1.974 0 012.806 0l2.337 2.337a1.974 1.974 0 010 2.807m-1.867-2.807a.667.667 0 00-.94 0 3.312 3.312 0 000 4.68l2.344 2.344a3.312 3.312 0 004.68 0 3.312 3.312 0 000-4.68l-.986-.987a4.635 4.635 0 01-.265 1.609l.311.31a1.974 1.974 0 010 2.808 1.974 1.974 0 01-2.807 0l-2.337-2.337a1.974 1.974 0 010-2.807.644.644 0 000-.94z" fill="#bbdefb" stroke-width=".662"/></svg>