<svg clip-rule="evenodd" fill-rule="evenodd" stroke-linejoin="round" stroke-miterlimit="1.414" viewBox="0 0 24 24" xmlns="http://www.w3.org/2000/svg"><path d="M10 4H4c-1.11 0-2 .89-2 2v12c0 1.097.903 2 2 2h16c1.097 0 2-.903 2-2V8a2 2 0 00-2-2h-8l-2-2z" fill="#64b5f6" fill-rule="nonzero"/><g stroke-width=".174"><path d="M22.844 11.355a.97.97 0 00-.48-.554l-4.57-2.187a.838.838 0 00-.374-.075c-.12 0-.255 0-.374.029l-4.571 2.204a.805.805 0 00-.45.553l-1.138 4.93a.94.94 0 00.165.719l3.162 3.91c.18.181.434.3.688.315h5.05a.746.746 0 00.69-.315l3.16-3.91c.15-.21.21-.465.18-.72z" fill="#326de6"/><path d="M22.12 16.06c-.014 0-.014 0-.014-.015 0-.016-.045-.016-.06-.016-.06-.014-.12-.014-.18-.014-.03 0-.06 0-.09-.016h-.015a3.027 3.027 0 01-.51-.09.18.18 0 01-.104-.104c0-.015-.015-.015-.015-.015l-.12-.03a3.91 3.91 0 00-.06-1.319 4.059 4.059 0 00-.524-1.228l.09-.09v-.015c0-.045.015-.105.045-.135.134-.105.27-.21.419-.284l.09-.046c.06-.03.105-.06.165-.09.014-.015.03-.015.045-.03l.015-.014a.295.295 0 00.06-.42.286.286 0 00-.21-.105.358.358 0 00-.21.075l-.015.015c-.015.015-.03.03-.045.03a.987.987 0 00-.12.134c-.014.03-.044.046-.06.06-.12.121-.24.24-.374.33-.03.015-.06.03-.09.03-.015 0-.045 0-.06-.015l-.12.09c-.12-.12-.255-.24-.374-.36a3.84 3.84 0 00-1.948-.778l-.015-.12-.015-.016c-.045-.03-.06-.074-.075-.12 0-.164 0-.329.03-.509v-.014c0-.03.014-.06.014-.09.016-.061.016-.12.03-.18v-.09c.016-.15-.104-.3-.254-.3a.34.34 0 00-.24.09.296.296 0 00-.09.21v.075c0 .06.016.12.03.18.016.03.016.06.016.089v.016c.029.164.029.33.029.51-.015.044-.03.089-.075.119l-.015.014-.014.12c-.165.016-.33.046-.51.076a3.572 3.572 0 00-1.843 1.048l-.09-.06h-.015c-.014 0-.03.016-.06.016s-.075-.016-.09-.03c-.135-.106-.254-.225-.374-.345-.015-.03-.045-.046-.06-.06-.045-.045-.075-.09-.12-.135-.015-.015-.03-.015-.045-.03l-.015-.015a.358.358 0 00-.21-.075.27.27 0 00-.225.105.322.322 0 00.06.42c.015 0 .015.015.015.015s.03.029.046.029c.044.03.105.06.164.09l.09.045c.15.09.285.18.42.284.03.031.06.09.044.135v.016l.09.09c-.015.03-.03.045-.045.074a3.55 3.55 0 00-.509 2.458l-.12.03c0 .015-.015.015-.015.015-.014.044-.06.075-.105.105a2.783 2.783 0 01-.51.09h-.014c-.03 0-.06 0-.09.015-.06 0-.12.014-.18.014-.015 0-.03.016-.06.016-.014 0-.014 0-.03.014a.293.293 0 00-.239.345.278.278 0 00.3.21c.03 0 .044 0 .074-.015.015 0 .015 0 .015-.015s.03-.015.06-.015c.06-.015.12-.045.165-.06a.213.213 0 01.09-.03h.015c.15-.06.315-.105.48-.135h.014a.17.17 0 01.12.045c.015 0 .015.015.015.015l.135-.015a3.616 3.616 0 001.229 1.754c.135.105.254.194.404.269l-.06.12c0 .015.015.015.015.015a.177.177 0 01.015.15c-.06.15-.15.3-.24.435v.014c-.015.03-.03.045-.06.075s-.06.09-.105.15c-.014.015-.014.03-.029.045 0 0 0 .015-.015.015a.308.308 0 00.12.405.282.282 0 00.12.029.336.336 0 00.284-.179s0-.016.015-.016c0-.014.015-.03.03-.044.015-.06.045-.105.06-.166l.03-.09c.045-.164.12-.314.195-.464a.232.232 0 01.12-.09c.015 0 .015 0 .015-.014l.06-.12c.42.165.854.24 1.303.24.27 0 .54-.03.81-.09.164-.03.329-.09.479-.135l.06.105c.015 0 .015 0 .015.015a.232.232 0 01.12.09c.074.149.134.3.194.45v.014l.03.09c.015.06.03.12.06.165.015.014.015.03.03.044 0 0 0 .016.015.016a.336.336 0 00.284.179c.046 0 .076-.015.12-.03a.25.25 0 00.136-.165.437.437 0 00-.016-.239c0-.015-.014-.015-.014-.015 0-.015-.016-.03-.03-.045a.537.537 0 00-.106-.15.263.263 0 00-.06-.075v-.014a1.77 1.77 0 01-.24-.435.177.177 0 01.016-.15c0-.015.015-.015.015-.015l-.045-.12a3.729 3.729 0 001.633-2.038l.12.015c.015 0 .015-.015.015-.015a.17.17 0 01.12-.045h.015c.165.03.33.076.48.135h.015c.029.015.06.03.09.03.06.03.104.045.164.06.015 0 .03.015.06.015.015 0 .015 0 .03.015a.135.135 0 00.075.015.326.326 0 00.3-.21c-.045-.15-.15-.27-.3-.3zm-4.314-.465l-.405.195-.405-.195-.12-.434.286-.36h.465l.284.36zm2.442-.974c.075.315.09.63.06.944l-1.424-.404c-.134-.03-.209-.165-.18-.3a.241.241 0 01.06-.105l1.124-1.019c.165.27.285.57.36.884zm-.81-1.438l-1.213.87c-.104.06-.255.044-.33-.061a.136.136 0 01-.045-.105l-.09-1.513a2.862 2.862 0 011.68.809zm-2.711-.765l.3-.06-.09 1.499c0 .135-.12.24-.256.24-.044 0-.074-.016-.12-.03l-1.213-.884a2.858 2.858 0 011.379-.765zm-1.828 1.32l1.108.988a.241.241 0 01.03.344c-.03.045-.06.06-.12.075l-1.438.42a3.03 3.03 0 01.42-1.828zm-.255 2.532l1.483-.255c.12 0 .24.075.255.194a.177.177 0 01-.015.15l-.57 1.38a2.947 2.947 0 01-1.153-1.47zm3.4 1.857a3.174 3.174 0 01-.658.075 3.37 3.37 0 01-.944-.15l.734-1.334a.232.232 0 01.3-.06c.045.03.075.06.12.106l.72 1.304c-.076.014-.166.029-.271.06zm1.83-1.303a2.861 2.861 0 01-.9.899l-.585-1.394a.253.253 0 01.135-.3.437.437 0 01.136-.03l1.497.255c-.074.21-.163.405-.284.57z" fill="#fff"/></g></svg>