<svg clip-rule="evenodd" stroke-linejoin="round" stroke-miterlimit="1.414" viewBox="0 0 24 24" xmlns="http://www.w3.org/2000/svg"><path d="M19 20H4a2 2 0 01-2-2V6c0-1.11.89-2 2-2h6l2 2h7c1.097 0 2 .903 2 2H4v10l2.14-8h17.07l-2.28 8.5c-.23.87-1.01 1.5-1.93 1.5z" fill="#009688"/><g fill="#b2dfdb" stroke-width=".664"><path d="M17.422 12.84l-.508.878-1.736-3.007-5.33 9.232h3.608c0 .485.394.879.88.879H9.847a.88.88 0 01-.761-1.319l5.33-9.232a.88.88 0 011.523 0z"/><path d="M21.27 19.503l-3.34-5.784-.508-.88-.508.88-3.34 5.784a.88.88 0 00.761 1.32h6.172a.88.88 0 00.762-1.32zm-6.935.44l3.087-5.345 3.085 5.345z"/><path d="M23.658 20.382a.88.88 0 01-.761.44h-2.39a.88.88 0 00.88-.88h1.508l-4.28-7.412-.685 1.188-.508-.879.432-.748a.88.88 0 011.523 0l4.281 7.412a.88.88 0 010 .88z"/></g></svg>