<svg clip-rule="evenodd" stroke-linejoin="round" stroke-miterlimit="1.414" viewBox="0 0 24 24" xmlns="http://www.w3.org/2000/svg"><path d="M19 20H4a2 2 0 01-2-2V6c0-1.11.89-2 2-2h6l2 2h7c1.097 0 2 .903 2 2H4v10l2.14-8h17.07l-2.28 8.5c-.23.87-1.01 1.5-1.93 1.5z" fill="#42a5f5"/><path d="M15.906 8.537c-1.02 0-1.846.826-1.846 1.845v1.084h2.768c.252 0 .459.368.459.62h-4.608c-1.02 0-1.845.826-1.845 1.846v2.44c0 1.02.826 1.845 1.845 1.845h.762v-1.73c0-1.02.82-1.846 1.839-1.846h3.388a1.84 1.84 0 001.845-1.839v-2.42c0-1.02-.826-1.845-1.845-1.845zm-.465 1.039c.258 0 .465.078.465.458s-.207.575-.465.575c-.252 0-.458-.194-.458-.575s.206-.458.458-.458z" fill="#3c78aa"/><path d="M21.132 11.763v1.73a1.84 1.84 0 01-1.84 1.845h-3.386a1.84 1.84 0 00-1.846 1.838v2.42a1.846 1.846 0 001.846 1.847h2.762a1.846 1.846 0 001.845-1.846v-1.084h-2.769c-.252 0-.457-.367-.457-.62h4.607a1.846 1.846 0 001.846-1.845v-2.44a1.846 1.846 0 00-1.846-1.845zm-6.22 2.913l-.003.003c.008-.002.016-.001.025-.003zm4.22 4.695c.252 0 .458.194.458.574a.458.458 0 01-.458.459c-.258 0-.464-.078-.464-.459s.206-.574.464-.574z" fill="#fdd835"/></svg>