<svg clip-rule="evenodd" fill-rule="evenodd" stroke-linejoin="round" stroke-miterlimit="1.414" viewBox="0 0 24 24" xmlns="http://www.w3.org/2000/svg"><path d="M10 4H4c-1.11 0-2 .89-2 2v12c0 1.097.903 2 2 2h16c1.097 0 2-.903 2-2V8a2 2 0 00-2-2h-8l-2-2z" fill="#1e88e5" fill-rule="nonzero"/><path d="M17.123 8.692a1.924 1.924 0 00-1.543 2.771l-2.161 1.614a.768.768 0 10.347.47l2.676-1.966c-.353-.332-.536-.876-.38-1.368a1.3 1.3 0 012.537.373l.623.012a1.923 1.923 0 00-2.099-1.906zm.234 1.222a.771.771 0 10.406 1.426l2.692 1.959c.21-.438.673-.78 1.191-.78a1.303 1.303 0 01.413 2.54l.178.6a1.928 1.928 0 10-1.931-3.22l-2.199-1.575a.774.774 0 00-.75-.95zm-4.333 1.873a1.895 1.895 0 00-1.555.776 1.912 1.912 0 00.428 2.67c.42.306.92.419 1.396.354l.853 2.549a.765.765 0 00.048 1.197.766.766 0 001.072-.163.764.764 0 00-.173-1.067.77.77 0 00-.395-.145l-1.025-3.146c-.424.226-.994.227-1.41-.076a1.293 1.293 0 01-.291-1.806c.335-.46.92-.63 1.435-.464l.206-.582a1.888 1.888 0 00-.59-.097zm8.65 1.265a.768.768 0 00-.8.997.755.755 0 00.235.346l-1.037 3.14c.479.063.943.397 1.1.885a1.293 1.293 0 01-.838 1.626 1.294 1.294 0 01-1.44-.459l-.515.35a1.918 1.918 0 002.146.698 1.913 1.913 0 001.239-2.406 1.898 1.898 0 00-.923-1.098l.824-2.556a.771.771 0 00.67-.998.764.764 0 00-.661-.525zm-8.56 4.567a1.916 1.916 0 103.436 1.448l2.69-.026a.766.766 0 10-.004-.584l-3.31.008c.088.474-.083 1.02-.499 1.324a1.294 1.294 0 01-1.82-1.794z" stroke-width=".32381076000000003" fill="#e3f2fd" stroke="#e3f2fd"/></svg>