<svg viewBox="0 0 283.46 283.46" xmlns="http://www.w3.org/2000/svg"><path d="M159.7 27.803l-5.887 1.234-2.933 4.397.5 4.893-5.787 17.67.699 6.166-.354 2.97-3.027 8.815-3.813 11.648-.771 5.39-1.768 5.305-1.605 6.166-3.418 10.08-3.23 11.4.958.686 5.502 3.931 10.484-1.556 8.889-14.36 4.94-24.354 3.023-14.732 3.418-20.053 1.15-10.088.989-6.133-2.276-7.305-5.683-2.17zM36.58 69.53l-7.953 2.603-3.326 4.534.793 1.004 9.779 12.377 13.025 9.67 36.832 27.61 1.236 2.36 6.323 4.453 11.498 11.086 7.691.514 8.016-10.36-.082-7.564-34.55-26.676-25.255-15.539L36.58 69.53zm202.61 54.682l-20.355 1.813-12.998 1.525-6.879.117-9.978-.633-9.735.262-5.619.605-5.86.522-5.62.89-7.084.674-3.307 1.737-4.506 8.742-.717 7.687.705.565 5.184 4.152 21.74-3.369 10.047.94 13.43-2.301 19.252-1.55 17.93-2.491 11.055-1.828 10.521-1.604 9.57-2.586-2.453-3.27.606-2.15-4.405-5.793-11.26-1.228-9.263-1.428zm-129.4 29.592l-1.188.725-7.644 4.664-60.682 53.527-20.795 17.879-2.006 5.842 5.191 7.183 5.52-3.748 2.187.988 21.21-13.326 6.773-5.52 10.855-6.87 5.717-5.975 24.586-18.215 8.677-7.422 9.328-11.188.936-8.941-8.666-9.604zm33.641 5.021l-.486.137s-9.631 2.424-11.605 10.215c-.438 1.729-.11 3.529.197 5.084.307 1.556.693 2.809.693 2.809l.133.437 3.623 3.303 5.39 10.307 11.108 27.811 4.55 11.271 5.993 12.324 3.265 5.566 1.092 5.032 10.373 2.539 2.733-6.434-3.08-16.342-7.797-25.34-8.63-23.943-11.813-22.95-5.739-1.825z" fill="#f06292"/></svg>