<svg viewBox="0 0 300 300" xmlns="http://www.w3.org/2000/svg"><g fill="#00acc1"><path class="st4" d="M22.734 138.395c-.584 0-.73-.291-.438-.73l3.065-3.94c.292-.438 1.022-.73 1.605-.73h52.105c.583 0 .73.438.437.876l-2.48 3.795c-.293.438-1.022.875-1.46.875zM.695 151.823c-.583 0-.73-.292-.437-.73l3.065-3.94c.291-.438 1.021-.73 1.605-.73h66.553c.584 0 .876.438.73.875l-1.168 3.503c-.146.584-.73.876-1.313.876zm35.32 13.427c-.583 0-.73-.438-.438-.875l2.044-3.65c.292-.437.876-.875 1.46-.875h29.19c.583 0 .875.438.875 1.022l-.292 3.503c0 .583-.584 1.021-1.022 1.021zM187.511 135.768c-9.194 2.336-15.47 4.087-24.52 6.422-2.188.584-2.334.73-4.232-1.46-2.189-2.48-3.794-4.086-6.86-5.545-9.194-4.525-18.097-3.211-26.416 2.189-9.925 6.422-15.033 15.908-14.887 27.73.146 11.676 8.173 21.309 19.703 22.914 9.925 1.314 18.244-2.189 24.812-9.632 1.313-1.606 2.48-3.357 3.94-5.4h-28.168c-3.065 0-3.795-1.898-2.773-4.379 1.897-4.524 5.4-12.114 7.443-15.908.438-.876 1.46-2.336 3.649-2.336h53.126c-.292 3.941-.292 7.882-.876 11.822-1.605 10.509-5.546 20.141-11.968 28.607-10.508 13.865-24.227 22.476-41.596 24.811-14.303 1.897-27.584-.876-39.26-9.633-10.8-8.173-16.93-18.973-18.536-32.4-1.897-15.91 2.773-30.212 12.406-42.764 10.362-13.573 24.082-22.184 40.866-25.25 13.72-2.48 26.855-.875 38.677 7.152 7.735 5.109 13.281 12.114 16.93 20.58.876 1.313.292 2.043-1.46 2.48z"/><path class="st4" d="M235.82 216.479c-13.28-.292-25.394-4.087-35.61-12.844-8.612-7.443-14.012-16.93-15.764-28.168-2.627-16.493 1.898-31.088 11.822-44.077 10.655-14.011 23.498-21.309 40.866-24.374 14.887-2.627 28.899-1.167 41.596 7.444 11.53 7.881 18.682 18.535 20.58 32.547 2.48 19.703-3.212 35.757-16.785 49.477-9.633 9.778-21.455 15.908-35.028 18.681-3.94.73-7.881.876-11.676 1.314zm34.737-58.964c-.146-1.897-.146-3.357-.438-4.816-2.627-14.45-15.908-22.623-29.774-19.412-13.573 3.065-22.33 11.676-25.54 25.396-2.628 11.384 2.918 22.914 13.426 27.584 8.028 3.503 16.055 3.065 23.79-.876 11.53-5.984 17.806-15.324 18.536-27.876z"/></g></svg>