<svg viewBox="0 0 24 24" xmlns="http://www.w3.org/2000/svg"><path d="M5.759 3.975h1.783V5.76H5.759v4.458A1.783 1.783 0 013.975 12a1.783 1.783 0 011.784 1.783v4.459h1.783v1.783H5.759c-.954-.24-1.784-.803-1.784-1.783v-3.567a1.783 1.783 0 00-1.783-1.783H1.3v-1.783h.892a1.783 1.783 0 001.783-1.784V5.76A1.783 1.783 0 015.76 3.975m12.483 0a1.783 1.783 0 011.783 1.784v3.566a1.783 1.783 0 001.783 1.784h.892v1.783h-.892a1.783 1.783 0 00-1.783 1.783v3.567a1.783 1.783 0 01-1.783 1.783h-1.784v-1.783h1.784v-4.459A1.783 1.783 0 0120.025 12a1.783 1.783 0 01-1.783-1.783V5.759h-1.784V3.975h1.784M12 14.675a.892.892 0 01.892.892.892.892 0 01-.892.892.892.892 0 01-.891-.892.892.892 0 01.891-.892m-3.566 0a.892.892 0 01.891.892.892.892 0 01-.891.892.892.892 0 01-.892-.892.892.892 0 01.892-.892m7.133 0a.892.892 0 01.891.892.892.892 0 01-.891.892.892.892 0 01-.892-.892.892.892 0 01.892-.892z" fill="#fbc02d"/></svg>