<svg fill="none" viewBox="0 0 300 300" xmlns="http://www.w3.org/2000/svg"><path d="M168.788 105.485l-9.087 15.734-31.075-53.824-95.393 165.211h64.59c0 8.69 7.044 15.734 15.734 15.734H33.23a15.733 15.733 0 01-13.623-23.601L115 59.529a15.735 15.735 0 0127.253 0z" fill="#00bfa5"/><path d="M237.65 224.739L177.873 121.22l-9.087-15.735-9.087 15.735-59.77 103.518a15.734 15.734 0 0013.624 23.601h110.454a15.734 15.734 0 0013.63-23.601zm-124.096 7.867l55.234-95.652 55.22 95.652H113.555z" fill="#f5f5f5"/><path d="M280.391 240.47a15.732 15.732 0 01-13.623 7.868H224.01c8.69 0 15.735-7.044 15.735-15.735h26.99L190.148 99.958l-12.272 21.261-9.087-15.734 7.736-13.394a15.735 15.735 0 0127.252 0l76.615 132.645a15.734 15.734 0 010 15.735z" fill="#26a69a"/></svg>