<svg viewBox="0 0 300 300" xmlns="http://www.w3.org/2000/svg"><path class="st2" d="M71.515 107.053h59.43v149.928l28.365 4.052v16.208H72.866v-17.559l28.364-4.052V125.963c-4.052 0-9.455 0-14.857-1.35s-9.455-1.351-13.507-2.702c0-4.052-1.351-9.455-1.351-14.858zm62.132-39.17v-37.82c5.403-1.35 12.156-4.052 20.26-5.402 6.754-1.351 17.56-2.702 29.716-1.351 6.753 1.35 14.858 2.701 22.962 8.104 2.701 2.701 9.455 8.104 13.507 17.56 6.753 14.857 1.35 29.715-1.35 35.117-8.105 18.91-27.015 25.664-29.716 27.014 5.403 1.351 13.507 2.702 21.611 9.455 14.858 12.156 16.208 28.365 17.56 32.417 2.7 22.962-14.859 39.17-17.56 43.222-10.806 10.806-21.611 13.507-28.365 16.209-10.805 4.052-21.61 4.052-28.364 4.052v-21.611h12.156c5.403-1.351 14.858-2.702 24.312-9.455 2.702-2.702 10.806-9.455 10.806-22.962 0-2.702 1.35-14.858-8.104-24.313-5.403-5.403-10.806-6.753-18.91-9.455s-16.208-2.701-20.26-2.701v-18.91c4.052 0 9.455-1.35 16.208-4.052s13.507-4.052 18.91-10.806c2.701-2.7 10.805-12.156 9.455-25.663 0-2.701-1.351-10.805-8.105-16.208-6.753-6.754-16.208-6.754-21.61-6.754-8.105 0-14.858 2.702-17.56 4.052-1.35 6.754-1.35 14.858-2.701 21.612-4.052-1.351-9.455-1.351-14.858-1.351z" fill="#455a64"/></svg>