<svg xmlns="http://www.w3.org/2000/svg" viewBox="0 0 500 500"><g style="isolation:isolate"><path class="cls-2" d="M462.596 230.033c.586 6.466.99 12.989.99 19.612 0-6.623-.404-13.142-.99-19.612z"/><path class="cls-2" d="M145.725 228.904S86.327 447.757 324.402 449.662c74.696-27.807 129.738-95.98 138.08-178.172.576-5.685.748-11.484.876-17.293.024-1.529.229-3.014.229-4.552 0-6.619-.405-13.146-.99-19.612-62.899 247.607-341.155 150.622-316.872-1.129z" fill="#90a4ae"/><path class="cls-2" d="M268.826 147.67S47.164 85.767 50.573 327.465a214.196 214.196 0 0051.657 77.216c.952.9 1.938 1.752 2.9 2.638a214.344 214.344 0 0020.255 16.507c1.1.786 2.133 1.653 3.237 2.42a212.71 212.71 0 0023.384 13.883c2.347 1.21 4.76 2.314 7.142 3.443a211.363 211.363 0 0021.355 8.666c1.785.609 3.49 1.37 5.299 1.937a211.73 211.73 0 0026.583 6.286c2.719.476 5.466.876 8.218 1.257a214.263 214.263 0 0028.145 2.185c.362 0 .71.057 1.071.057 7.104 0 14.118-.38 21.036-1.062-248.707-59.312-154.174-337.416-2.029-315.228z" fill="#90a4ae"/><path class="cls-2" d="M355.227 262.291s52.442-221.09-183.619-211.216C92.45 82.343 36.413 159.364 36.413 249.625a214.787 214.787 0 002.195 29.045c49.68-250.135 332.712-169.125 316.619-16.379z" fill="#90a4ae"/><path class="cls-2" d="M241.882 357.433s222.048 28.988 208.15-182.128C419.81 94.042 341.78 36.039 250 36.039a214.377 214.377 0 00-38.734 3.68c247.421 30.373 183.114 319.876 30.616 317.714z" fill="#90a4ae"/><path d="M311.641 249.65a59.827 59.827 0 11-59.808-59.827 59.822 59.822 0 0159.808 59.827z" fill="#607d8b"/></g></svg>