<svg xmlns="http://www.w3.org/2000/svg" viewBox="0 0 24 24"><path d="M12 2.909a1.818 1.818 0 011.818 1.818c0 .673-.363 1.264-.909 1.573v1.155h.909a6.364 6.364 0 016.364 6.364h.909a.909.909 0 01.909.908v2.727a.909.909 0 01-.909.909h-.909v.909a1.818 1.818 0 01-1.818 1.818H5.636a1.818 1.818 0 01-1.818-1.817v-.909h-.909A.909.909 0 012 17.455v-2.728a.909.909 0 01.909-.909h.909a6.364 6.364 0 016.364-6.363h.909V6.3a1.802 1.802 0 01-.909-1.573A1.818 1.818 0 0112 2.909m-4.091 10a2.273 2.273 0 00-2.273 2.273 2.273 2.273 0 002.273 2.273 2.273 2.273 0 002.273-2.273 2.273 2.273 0 00-2.273-2.273m8.182 0a2.273 2.273 0 00-2.273 2.273 2.273 2.273 0 002.273 2.273 2.273 2.273 0 002.273-2.273 2.273 2.273 0 00-2.273-2.273z" fill="#ff5252"/></svg>