<svg viewBox="0 0 24 24" xmlns="http://www.w3.org/2000/svg"><path class="st0" d="M10.097 15.432a3.513 3.513 0 00.914-4.882l-2.896 1.982a1.759 1.759 0 01-2.44-.46 1.76 1.76 0 01.46-2.443L8.78 7.82l1.697-1.164a3.513 3.513 0 00.915-4.883L8.496 3.759 4.152 6.728l-.005.006a5.266 5.266 0 00-1.368 7.324c1.635 2.402 4.917 3.015 7.318 1.374zm3.81-6.864c-.011.005-.017.01-.022.016l.022-.016a3.513 3.513 0 00-.914 4.882l2.895-1.982a1.75 1.75 0 012.442.46c.551.801.346 1.892-.454 2.443l-2.646 1.81-1.702 1.164a3.513 3.513 0 00-.915 4.883l2.896-1.982 4.343-2.974a5.272 5.272 0 001.374-7.324 5.251 5.251 0 00-7.319-1.38" stroke-width=".61" fill="#0288d1"/></svg>