<svg viewBox="0 0 100 100" xmlns="http://www.w3.org/2000/svg"><path d="M42.951 7.647c-.659 2.54-1.157 5.016-1.581 7.52a36.344 36.344 0 00-10.041 3.98c-2.023-1.43-4.084-2.814-6.268-4.084l-9.994 9.928a83.033 83.033 0 003.84 5.929 36.514 36.514 0 00-4.668 10.568c-2.202.395-4.385.847-6.587 1.43v14.107c2.051.546 4.084.97 6.135 1.336a36.382 36.382 0 004.527 11.5 70.054 70.054 0 00-3.237 5.091l9.985 9.985c1.693-.978 3.303-2.032 4.874-3.115a36.213 36.213 0 0011.792 4.913 74.003 74.003 0 001.233 5.618h14.173c.499-1.92.904-3.84 1.261-5.75a36.485 36.485 0 0011.443-4.988c1.694 1.148 3.388 2.259 5.138 3.303l9.976-9.994a82.09 82.081 0 00-3.548-5.486 36.533 36.533 0 004.235-11.011c2.24-.414 4.47-.857 6.71-1.45V42.908c-2.362-.63-4.725-1.11-7.143-1.515a36.787 36.787 0 00-4.357-10.069 86.408 86.408 0 004.14-6.342l-10.013-9.966c-2.268 1.336-4.423 2.776-6.53 4.281a35.987 35.987 0 00-9.76-4.027c-.423-2.541-.931-5.082-1.609-7.623zm6.7 16.544a26.689 26.689 0 01.076 0 26.369 26.369 0 019.137 1.619c.669.244 1.318.508 1.967.846a26.811 26.811 0 0112.855 12.545c.254.518.49 1.045.716 1.572a26.604 26.604 0 01.498 18.925c-.103.301-.207.593-.32.847a26.849 26.849 0 01-13.947 14.653l-.178.122a26.727 26.727 0 01-20.986.198.113.113 0 000-.047A26.83 26.83 0 0124.9 60.517l-.132-.358a26.661 26.661 0 01.527-19.913c.15-.357.31-.715.49-1.063a26.896 26.896 0 0113.456-12.846 25.964 25.964 0 011.779-.687 26.689 26.689 0 018.63-1.459zm8.686 6.474a3.68 3.68 0 00-3.52 4.894 3.614 3.614 0 00.914 1.402l-3.388 5.873a7.444 7.444 0 00-3.341-.612 7.331 7.331 0 00-6.098 3.943l-7.265-2.851v-.076a3.388 3.388 0 10-.64 1.657l7.265 2.851a7.34 7.34 0 002.475 7.491l-3.388 5.289a4.433 4.433 0 00-1.92-.32 4.517 4.517 0 103.388 1.233l3.388-5.27a7.34 7.34 0 008.526-1.544l4.235 3.162a5.364 5.364 0 1010.004 1.402 5.364 5.364 0 00-9.006-2.757L55.74 53.29a7.312 7.312 0 00-1.929-9.57l3.388-5.873a3.68 3.68 0 101.148-7.18z" fill="#0288d1"/></svg>