<svg viewBox="0 0 300 300" xmlns="http://www.w3.org/2000/svg"><path d="M150 61.553A88.446 88.446 0 0061.553 150 88.446 88.446 0 00150 238.446 88.446 88.446 0 00238.446 150 88.446 88.446 0 00150 61.553zm.011 25.082a63.353 63.353 0 0163.353 63.353 63.353 63.353 0 01-63.353 63.353 63.353 63.353 0 01-63.353-63.353 63.353 63.353 0 0163.353-63.353z" fill="#0288d1" paint-order="fill markers stroke"/><path d="M45.008 193.096L12.213 225.89l32.795 32.795V238.44h104.99v-25.098H45.008zM74.088 12.21L41.293 45.006h20.246v104.99h25.098V45.007h20.246zm180.901 29.093V61.55h-104.99v25.097h104.99v20.246L287.784 74.1zM213.32 149.998V254.99h-20.245l32.794 32.795 32.795-32.795h-20.246v-104.99z" fill="#0288d1" stroke-width="15.81"/></svg>